<svg
  data-v-0dd9719b=""
  version="1.0"
  xmlns="http://www.w3.org/2000/svg"
  xmlns:xlink="http://www.w3.org/1999/xlink"
  width="100%"
  height="100%"
  viewBox="0 0 340.000000 250.000000"
  preserveAspectRatio="xMidYMid meet"
  color-interpolation-filters="sRGB"
  style="margin: auto"
>
  <rect
    data-v-0dd9719b=""
    x="0"
    y="0"
    width="100%"
    height="100%"
    fill="#feffff"
    fill-opacity="1"
    class="background"
  ></rect>
  <rect
    data-v-0dd9719b=""
    x="0"
    y="0"
    width="100%"
    height="100%"
    fill="url(#watermark)"
    fill-opacity="1"
    class="watermarklayer"
  ></rect>
  <g
    data-v-0dd9719b=""
    fill="#191b5c"
    class="iconlinesvg-g iconlinesvg"
    transform="translate(82.25702667236328,92.48406219482422)"
  >
    <g class="tp-name">
      <g transform="translate(0, 2.9881898480627065)">
        <g>
          <g class="imagesvg">
            <g>
              <rect
                fill="#191b5c"
                fill-opacity="0"
                stroke-width="2"
                x="0"
                y="0"
                width="70.4789087630355"
                height="59.06268280387459"
                class="image-rect"
              ></rect>
              <svg
                x="0"
                y="0"
                width="70.4789087630355"
                height="59.06268280387459"
                filtersec="colorsb8883449201"
                class="image-svg-svg primary"
                style="overflow: visible"
              >
                <svg
                  xmlns="http://www.w3.org/2000/svg"
                  viewBox="0 0 122.41999816894531 102.58999633789062"
                >
                  <g>
                    <g>
                      <path
                        fill="#ff3f57"
                        d="M63.49 0H25.36l-4.42 11.14 18.83 12.75H54L63.49 0z"
                      ></path>
                      <path
                        d="M101 83.86l5.2-13.08a16.5 16.5 0 0 0-.5-13.41c-4.7-9.73-16.88-13.37-35.3-19-2.83-.86-8.28-2.64-12-3.87a3.85 3.85 0 0 1-2.22-1.9 3.05 3.05 0 0 1-.34-1.67L45.77 28h65.54l11.11-28h-63C46.78 0 34.49 7.87 30.18 18.72L25.07 31.6a16.92 16.92 0 0 0 .51 13.74C30.24 55 42 59 62.29 65.14c2.72.82 8.21 2.6 11.52 3.68a2.74 2.74 0 0 1 1.72 3.56 3.42 3.42 0 0 1-3.21 2.24H11.11L0 102.59h71.75c12.63 0 24.93-7.88 29.25-18.73z"
                        fill="#191b5c"
                      ></path>
                    </g>
                  </g>
                </svg>
              </svg>
              <!---->
            </g>
          </g>
        </g>
      </g>
      <g transform="translate(74, 0)">
        <g data-gra="path-name" fill="#191b5c" transform="scale(1)">
          <path
            d="M13.01-32.70L13.01-32.70L5.63-32.70Q5.98-48.52 24.96-48.52L24.96-48.52Q41.84-47.81 42.19-35.16L42.19-35.16L42.19-8.09Q42.19-5.27 45-5.27L45-5.27Q45.35-5.27 46.05-5.27L46.05-5.27Q47.11-5.63 47.81-5.63L47.81-5.63L47.81 0Q47.11 0 46.05 0L46.05 0Q44.30 0.35 43.24 0.35L43.24 0.35Q34.80 0.35 35.16-6.33L35.16-6.33Q28.13 0.70 17.93 0.70L17.93 0.70Q3.87 0 3.16-12.30L3.16-12.30Q3.52-24.96 17.58-27.07L17.58-27.07L30.59-28.48Q34.80-29.18 34.80-34.10L34.80-34.10Q34.80-41.84 23.55-41.84L23.55-41.84Q13.71-41.84 13.01-32.70ZM34.45-16.17L34.45-16.17L34.45-23.91Q31.64-22.15 21.45-20.74L21.45-20.74Q11.60-20.04 11.60-13.36L11.60-13.36Q11.60-5.27 19.69-5.27L19.69-5.27Q33.40-6.33 34.45-16.17Z"
            transform="translate(-3.1640625, 64.3359375)"
          ></path>
        </g>
      </g>
      <g transform="translate(122, 0)">
        <g data-gra="path-name" fill="#191b5c" transform="scale(1)">
          <path
            d="M5.98-47.11L14.06-47.11L14.06 0L5.98 0L5.98-47.11ZM14.06-64.34L14.06-55.55L5.98-55.55L5.98-64.34L14.06-64.34Z"
            transform="translate(-5.9765625, 64.3359375)"
          ></path>
        </g>
      </g>
      <g transform="translate(134, 0)">
        <g data-gra="path-name" fill="#191b5c" transform="scale(1)">
          <path
            d="M36.91-64.34L44.65-64.34L44.65 0L37.27 0L37.27-6.33Q33.05 0.70 23.91 0.70L23.91 0.70Q4.22 0 3.16-24.96L3.16-24.96Q4.22-47.46 22.85-48.52L22.85-48.52Q30.23-48.52 36.21-41.48L36.21-41.48Q36.56-40.78 36.91-40.43L36.91-40.43L36.91-40.78L36.91-64.34ZM11.25-23.55L11.25-23.55Q11.95-5.98 23.91-5.27L23.91-5.27Q36.56-6.68 36.91-21.09L36.91-21.09Q36.91-41.13 24.26-41.13L24.26-41.13Q10.90-41.13 11.25-23.55Z"
            transform="translate(-3.1640625, 64.3359375)"
          ></path>
        </g>
      </g>
    </g>
    <!---->
  </g>
  <defs v-gra="od"></defs>
</svg>
